<?xml version="1.0" encoding="utf-8"?>
<!-- Generator: Adobe Illustrator 28.2.0, SVG Export Plug-In . SVG Version: 6.00 Build 0)  -->
<svg version="1.1" id="圖層_1" xmlns="http://www.w3.org/2000/svg" xmlns:xlink="http://www.w3.org/1999/xlink" x="0px" y="0px"
	 viewBox="0 0 1485 59" style="enable-background:new 0 0 1485 59;" xml:space="preserve">
<style type="text/css">
	.st0{clip-path:url(#SVGID_00000175283686467133223670000012472946664106094759_);}
	.st1{fill:#1F1E21;}
	.st2{fill:#66C8D1;}
	.st3{fill:#F2F2F2;}
	.st4{fill:#FFFFFF;}
	.st5{opacity:0.7;}
	.st6{opacity:0.4;fill:#53A6AA;enable-background:new    ;}
</style>
<g>
	<defs>
		<rect id="SVGID_1_" y="0" width="1485" height="59"/>
	</defs>
	<clipPath id="SVGID_00000179613658316810730070000017408952543108927383_">
		<use xlink:href="#SVGID_1_"  style="overflow:visible;"/>
	</clipPath>
	<g style="clip-path:url(#SVGID_00000179613658316810730070000017408952543108927383_);">
		<g id="_圖層_2">
			<path class="st1" d="M211.4,19.8h1060.2c13.3,0,24.1,10.8,24.1,24.1v370.2c0,13.3-10.8,24.1-24.1,24.1H211.4
				c-13.3,0-24.1-10.8-24.1-24.1V43.9C187.3,30.6,198.1,19.8,211.4,19.8z"/>
			<path class="st2" d="M218,13.2h1060.2c13.3,0,24.1,10.8,24.1,24.1v370.2c0,13.3-10.8,24.1-24.1,24.1H218
				c-13.3,0-24.1-10.8-24.1-24.1V37.3C193.9,23.9,204.7,13.2,218,13.2z"/>
			<path class="st3" d="M1298.3,37.7v370.2c0,11.1-9,20.1-20.1,20.1H218c-11.1,0-20.1-9-20.1-20.1V37.7c0-11.1,9-20.1,20.1-20.1
				h1060.2c4.1,0,8.1,1.3,11.5,3.6C1295.1,25,1298.3,31.1,1298.3,37.7z"/>
			<path class="st4" d="M1295.3,37.7v4.6c0-8.3-5.9-15.4-14.1-16.8c-1-0.2-2-0.3-3-0.3H218c-9.4,0-17.1,7.7-17.1,17.1v-4.6
				c0-9.4,7.7-17.1,17.1-17.1h1060.2c3.5,0,6.9,1.1,9.7,3C1292.6,26.9,1295.3,32.1,1295.3,37.7z"/>
			<g class="st5">
				<path class="st6" d="M1278.5,13.2v4.3c-1.2-0.2-2.4-0.3-3.6-0.3H454.6v-4H1278.5z"/>
			</g>
		</g>
	</g>
</g>
</svg>
