<?xml version="1.0" encoding="UTF-8"?>
<svg id="_圖層_1" data-name=" 圖層 1" xmlns="http://www.w3.org/2000/svg" width="1485" height="59" xmlns:xlink="http://www.w3.org/1999/xlink" viewBox="0 0 1485 59">
  <defs>
    <style>
      .cls-1 {
        fill: none;
      }

      .cls-1, .cls-2, .cls-3, .cls-4 {
        stroke-width: 0px;
      }

      .cls-2 {
        fill: #1f1e21;
      }

      .cls-5 {
        clip-path: url(#clippath);
      }

      .cls-3 {
        fill: #66c8d1;
      }

      .cls-4 {
        fill: #f2f2f2;
      }
    </style>
    <clipPath id="clippath">
      <rect class="cls-1" x=".5" y="0" width="1484" height="59"/>
    </clipPath>
  </defs>
  <g class="cls-5">
    <g id="_圖層_2" data-name=" 圖層 2">
      <rect class="cls-2" x="184.97" y="-175.22" width="1108.43" height="418.41" rx="24.1" ry="24.1"/>
      <rect class="cls-3" x="191.59" y="-181.84" width="1108.43" height="418.41" rx="24.1" ry="24.1"/>
      <path class="cls-4" d="M1296.02-157.28V212.93c0,11.1-9,20.09-20.1,20.1H215.67c-11.1,0-20.09-9-20.1-20.1V-157.28c0-6.59,3.23-12.75,8.64-16.51,3.36-2.34,7.36-3.6,11.46-3.59h1060.25c1.19,0,2.39.11,3.56.32,2.84.5,5.54,1.62,7.9,3.27,5.41,3.76,8.64,9.92,8.64,16.51h0Z"/>
    </g>
  </g>
</svg>