<?xml version="1.0" encoding="utf-8"?>
<!-- Generator: Adobe Illustrator 28.2.0, SVG Export Plug-In . SVG Version: 6.00 Build 0)  -->
<svg version="1.1" id="圖層_1" xmlns="http://www.w3.org/2000/svg" xmlns:xlink="http://www.w3.org/1999/xlink" x="0px" y="0px"
	 viewBox="0 0 1485 59" style="enable-background:new 0 0 1485 59;" xml:space="preserve">
<style type="text/css">
	.st0{clip-path:url(#SVGID_00000073001015674532688730000004004316297403328139_);}
	.st1{fill:#1F1E21;}
	.st2{fill:#66C8D1;}
	.st3{fill:#F2F2F2;}
	.st4{fill:#FFFFFF;}
	.st5{opacity:0.7;}
	.st6{opacity:0.4;fill:#53A6AA;enable-background:new    ;}
</style>
<g>
	<defs>
		<rect id="SVGID_1_" y="0" width="1485" height="59"/>
	</defs>
	<clipPath id="SVGID_00000075870172475996563030000007811531971961169048_">
		<use xlink:href="#SVGID_1_"  style="overflow:visible;"/>
	</clipPath>
	<g style="clip-path:url(#SVGID_00000075870172475996563030000007811531971961169048_);">
		<g id="_圖層_2">
			<path class="st1" d="M209.1,19.8h1060.2c13.3,0,24.1,10.8,24.1,24.1v370.2c0,13.3-10.8,24.1-24.1,24.1H209.1
				c-13.3,0-24.1-10.8-24.1-24.1V43.9C185,30.6,195.8,19.8,209.1,19.8z"/>
			<path class="st2" d="M215.7,13.2h1060.2c13.3,0,24.1,10.8,24.1,24.1v370.2c0,13.3-10.8,24.1-24.1,24.1H215.7
				c-13.3,0-24.1-10.8-24.1-24.1V37.3C191.6,23.9,202.4,13.2,215.7,13.2z"/>
			<path class="st3" d="M1296,37.7v370.2c0,11.1-9,20.1-20.1,20.1H215.7c-11.1,0-20.1-9-20.1-20.1V37.7c0-11.1,9-20.1,20.1-20.1
				h1060.2c4.1,0,8.1,1.3,11.5,3.6C1292.8,25,1296,31.1,1296,37.7z"/>
			<path class="st4" d="M1293,37.7v4.6c0-8.3-5.9-15.4-14.1-16.8c-1-0.2-2-0.3-3-0.3H215.7c-9.4,0-17.1,7.7-17.1,17.1v-4.6
				c0-9.4,7.7-17.1,17.1-17.1h1060.2c3.5,0,6.9,1.1,9.7,3C1290.3,26.9,1293,32.1,1293,37.7z"/>
			<g class="st5">
				<path class="st6" d="M1276.2,13.2v4.3c-1.2-0.2-2.4-0.3-3.6-0.3H452.3v-4H1276.2z"/>
			</g>
		</g>
	</g>
</g>
</svg>
