<?xml version="1.0" encoding="UTF-8"?>
<svg id="_圖層_1" data-name="圖層 1" xmlns="http://www.w3.org/2000/svg" width="1485" height="138" xmlns:xlink="http://www.w3.org/1999/xlink" viewBox="0 0 1485 138">
  <defs>
    <style>
      .cls-1 {
        fill: none;
      }

      .cls-1, .cls-2, .cls-3, .cls-4, .cls-5 {
        stroke-width: 0px;
      }

      .cls-2 {
        fill: #1f1e21;
      }

      .cls-6 {
        clip-path: url(#clippath);
      }

      .cls-3 {
        fill: #d3d6d5;
        isolation: isolate;
        opacity: .7;
      }

      .cls-4 {
        fill: #66c8d1;
      }

      .cls-5 {
        fill: #f2f2f2;
      }
    </style>
    <clipPath id="clippath">
      <rect class="cls-1" y=".16" width="1485" height="140.84"/>
    </clipPath>
  </defs>
  <g class="cls-6">
    <g id="_圖層_2" data-name=" 圖層 2">
      <rect class="cls-2" x="184.97" y="-337.22" width="1108.43" height="418.41" rx="24.1" ry="24.1"/>
      <rect class="cls-4" x="191.59" y="-343.84" width="1108.43" height="418.41" rx="24.1" ry="24.1"/>
      <path class="cls-5" d="M1296.02-319.28V50.93c-.02,11.09-9.01,20.06-20.1,20.07H215.69c-11.1,0-20.09-9-20.1-20.1v-370.18c0-6.59,3.23-12.75,8.64-16.51,3.36-2.34,7.36-3.6,11.46-3.59h1060.23c1.19,0,2.39.11,3.56.32,2.84.5,5.54,1.62,7.9,3.27,5.41,3.76,8.64,9.92,8.64,16.51Z"/>
      <path class="cls-3" d="M1293.02,46.35v4.58c-.02,5.59-2.77,10.81-7.36,14-2.85,2-6.25,3.07-9.74,3.07H215.69c-9.44,0-17.1-7.66-17.1-17.1h0v-4.58c0,9.44,7.66,17.1,17.1,17.1h1060.23c9.43,0,17.08-7.64,17.1-17.07Z"/>
    </g>
  </g>
</svg>