<?xml version="1.0" encoding="UTF-8"?>
<svg id="_圖層_1" data-name="圖層 1" xmlns="http://www.w3.org/2000/svg" width="1485" height="59" xmlns:xlink="http://www.w3.org/1999/xlink" viewBox="0 0 1485 59">
  <defs>
    <style>
      .cls-1 {
        fill: #53a6aa;
        isolation: isolate;
        opacity: .4;
      }

      .cls-1, .cls-2, .cls-3, .cls-4, .cls-5, .cls-6 {
        stroke-width: 0px;
      }

      .cls-2 {
        fill: none;
      }

      .cls-7 {
        opacity: .7;
      }

      .cls-3 {
        fill: #fff;
      }

      .cls-4 {
        fill: #1f1e21;
      }

      .cls-8 {
        clip-path: url(#clippath);
      }

      .cls-5 {
        fill: #66c8d1;
      }

      .cls-6 {
        fill: #f2f2f2;
      }
    </style>
    <clipPath id="clippath">
      <rect class="cls-2" y="0" width="1485" height="59"/>
    </clipPath>
  </defs>
  <g class="cls-8">
    <g id="_圖層_2" data-name=" 圖層 2">
      <rect class="cls-4" x="184.97" y="19.78" width="1108.43" height="418.41" rx="24.1" ry="24.1"/>
      <rect class="cls-5" x="191.59" y="13.16" width="1108.43" height="418.41" rx="24.1" ry="24.1"/>
      <path class="cls-6" d="M1296.02,37.72v370.21c-.02,11.09-9.01,20.06-20.1,20.07H215.69c-11.1,0-20.09-9-20.1-20.1V37.72c0-11.1,9-20.09,20.1-20.1h1060.23c4.1,0,8.09,1.26,11.46,3.59,5.41,3.76,8.64,9.92,8.64,16.51Z"/>
      <path class="cls-3" d="M1293.02,37.72v4.58c0-8.28-5.95-15.37-14.1-16.83-.99-.18-1.99-.27-3-.27H215.69c-9.44,0-17.09,7.66-17.1,17.1v-4.58c0-9.44,7.66-17.09,17.1-17.1h1060.23c3.48,0,6.88,1.07,9.74,3.05,4.6,3.2,7.35,8.44,7.36,14.05Z"/>
      <g class="cls-7">
        <path class="cls-1" d="M1276.15,13.16v4.32c-1.17-.21-2.37-.32-3.56-.32H452.27v-4h823.88Z"/>
      </g>
    </g>
    <g id="_圖層_2-2" data-name=" 圖層 2">
      <rect class="cls-4" x="184.97" y="17.78" width="1108.43" height="418.41" rx="24.1" ry="24.1"/>
      <rect class="cls-5" x="191.59" y="11.16" width="1108.43" height="418.41" rx="24.1" ry="24.1"/>
      <path class="cls-6" d="M1296.02,35.72v370.21c0,11.1-9,20.09-20.1,20.1H215.67c-11.1,0-20.09-9-20.1-20.1V35.72c0-6.59,3.23-12.75,8.64-16.51,3.36-2.34,7.36-3.6,11.46-3.59h1060.25c1.19,0,2.39.11,3.56.32,2.84.5,5.54,1.62,7.9,3.27,5.41,3.76,8.64,9.92,8.64,16.51h0Z"/>
    </g>
  </g>
</svg>